<svg width="138" height="68" viewBox="0 0 138 68" fill="none" xmlns="http://www.w3.org/2000/svg">
<path d="M53.9627 55.7479C54.4417 55.072 54.282 54.1358 53.6061 53.6568L42.5914 45.8513C41.9155 45.3723 40.9792 45.5319 40.5002 46.2079C40.0212 46.8838 40.1809 47.82 40.8568 48.299L50.6477 55.2372L43.7095 65.0281C43.2305 65.704 43.3901 66.6402 44.066 67.1192C44.742 67.5982 45.6782 67.4386 46.1572 66.7626L53.9627 55.7479ZM137.133 2.50589C92.0481 -1.50164 60.0305 0.365358 38.3844 5.30281C16.8495 10.2149 5.16768 18.2691 1.50868 27.0363C-0.346226 31.4808 -0.0802253 35.9943 1.90444 40.1061C3.87245 44.1833 7.49615 47.8076 12.288 50.6644C21.8723 56.3784 36.3904 59.19 52.991 56.3593L52.4867 53.402C36.452 56.1362 22.685 53.3702 13.8242 48.0876C9.39353 45.4461 6.25462 42.2172 4.60618 38.802C2.97439 35.4213 2.77009 31.803 4.27724 28.1918C7.34235 20.8476 17.714 13.0948 39.0516 8.22768C60.278 3.38596 91.9519 1.50164 136.867 5.49411L137.133 2.50589Z" fill="white"/>
</svg>
